<?xml version="1.0" encoding="UTF-8"?>
<svg id="Livello_1" data-name="Livello 1" xmlns="http://www.w3.org/2000/svg" version="1.1" viewBox="0 0 1200 800">
  <defs>
    <style>
      .cls-1 {
        fill: #a7a6a6;
      }

      .cls-1, .cls-2, .cls-3 {
        stroke-width: 0px;
      }

      .cls-2 {
        fill: #e20613;
      }

      .cls-3 {
        fill: #fff;
        fill-rule: evenodd;
      }
    </style>
  </defs>
  <path class="cls-2" d="M301,739.5c-28.8,27.8-62.5,42.4-99.8,40.9-37-1.5-70.6-18-100.3-46.8-31.1-31.3-49.6-65.2-50.6-101.5-1-36.5,16-70.2,46.2-100.6l231.9-231.9c29.9-29.1,63-45.4,98.8-44.4,36.2,1,70.2,19.4,101.5,50.6,28.9,29.7,45.4,63.3,46.9,100.3,1.5,37.3-13.1,71-40.9,99.8l-233.6,233.6Z"/>
  <path class="cls-1" d="M1119.3,275.7l-128.2,128.2,125.9,125.9c27.8,28.8,42.4,62.5,40.9,99.8-1.5,37-18,70.6-46.9,100.3-31.3,31.1-65.2,49.6-101.5,50.5-36.5,1-70.2-16-100.6-46.2l-231.9-231.9c-29.1-29.9-45.4-63-44.4-98.8.3-11.6,2.4-23,6.2-34.2,6.4-23.5,20.4-45.7,40.5-66.3l231.9-231.9c30.4-30.2,64.1-47.2,100.6-46.2,36.2,1,70.2,19.4,101.5,50.6,28.9,29.7,45.4,63.3,46.9,100.3,1.5,37.3-13.1,71-40.9,99.8"/>
  <path class="cls-2" d="M524,294.1c27.8,28.8,42.4,62.5,40.9,99.8-1.5,37-18,70.6-46.9,100.3-31.3,31.1-65.2,49.6-101.5,50.6-36.5,1-70.2-16-100.6-46.2l-231.9-231.9c-29.1-29.9-45.4-63-44.4-98.8,1-36.2,19.4-70.2,50.5-101.4,29.7-28.9,63.3-45.4,100.3-46.9,37.3-1.5,71,13.1,99.8,40.9l233.6,233.6Z"/>
  <path class="cls-3" d="M682.9,411.9c3.8,4.1,8.3,6.7,12.3,6.7,7.8,0,13.8-5,13.8-20.2s-5.5-19.4-13.8-19.4-7.4,1.8-12.3,6.5v26.4ZM682.9,420.5v23.2h-8.3v-71.3h8.3v5.1c2.7-3.4,8.1-6.1,12.9-6.1,9.4,0,21.6,6.4,21.6,27.2s-12.2,27.2-21.2,27.2-9.4-2.3-13.2-5.3"/>
  <path class="cls-3" d="M756,397.4c-15.8,2.9-22.9,7.5-22.9,13.9s4.1,7.2,7.8,7.2,11-3.5,15.1-8.1v-13.1ZM725.9,383.2l.3-.5c3.3-6.1,9.8-11.1,19.7-11.1s18.3,4.2,18.3,16v25.8c0,5.6.5,8.3,1.2,10.8l.2.8h-8.6l-.7-6.3c-3.7,3.7-9.2,7.3-16.4,7.3s-15.2-4.9-15.2-14.7,9-17.3,31.3-21.4v-2.2c0-6.3-4-8.7-9.9-8.7s-11.2,4.3-12.5,7.6l-.3.6-7.4-3.9Z"/>
  <path class="cls-3" d="M784.9,381.5c3.5-6.1,7.9-9.8,16.2-9.8h.6v8.3h-.6c-8.5.2-12.9,5.6-16.2,16v28.9s-8.3,0-8.3,0v-52.4h8.3v9Z"/>
  <path class="cls-3" d="M812.6,372.5v-16.8h8.3v16.8s11.8,0,11.8,0v7.3h-11.8v35.8c0,1.8,1.1,2.9,5.2,2.9s4.4-.2,6.2-.5h.7c0-.1,0,6.9,0,6.9h-.4c-1.4.6-4.3.9-8.4.9-7.8,0-11.5-2.1-11.5-9.1v-36.9h-8.4v-7.3h8.4Z"/>
  <path class="cls-3" d="M852.2,378.7c3.8-4.1,9-7.2,14.7-7.2s15.4,4.1,15.4,15.6v37.8h-8.3v-37.6c0-6.4-2.9-8.4-7.7-8.4s-10.8,4-14,7.4v38.6h-8.3v-52.4h8.3v6.2Z"/>
  <path class="cls-3" d="M926.9,393.4c-.2-8.9-4.6-14.5-11.6-14.5s-12.4,5.6-13.1,14.5h24.7ZM937.1,413.1l-.3.6c-3.4,5.9-8.3,12.2-20.2,12.2s-22.9-8.2-22.9-27.2,8.4-27.2,21.5-27.2,20.1,7.2,20.1,23.8v5.3h-33.2c.2,10.6,6.7,17.8,14.5,17.8s10.8-3.2,13.6-8.3l.3-.5,6.6,3.4Z"/>
  <path class="cls-3" d="M954.1,381.5c3.5-6.1,7.9-9.8,16.2-9.8h.6v8.3h-.6c-8.4.2-12.9,5.6-16.2,16v28.9s-8.3,0-8.3,0v-52.4h8.3v9Z"/>
  <path class="cls-3" d="M354.7,377.4h94.1c.6-16.6-2.5-31.1-9.1-43.5-6.6-12.5-18.8-19-36.4-19.7-17,.7-29.2,7.2-36.6,19.7-7.4,12.5-11.4,27-12,43.5M516.5,410.8h-161.8c-.6,13.4.6,26.3,3.8,38.8,3.2,12.4,9.1,22.6,17.6,30.7,8.6,8,20.6,12.2,36.2,12.5,18.1,0,32-4.6,41.8-13.7,9.8-9.1,16.3-22.4,19.4-39.9h42c-3.2,29-13.7,51.5-31.6,67.4-17.9,15.9-43.6,23.9-77.1,24.2-39.3-.1-69.1-10.9-89.3-32.2-20.3-21.4-30.4-52.6-30.5-93.7.5-37.5,11.4-67.8,32.5-90.6,21.1-22.9,49.4-34.6,84.8-35.3,27.6.6,50,7.7,67.2,21.4,17.2,13.7,29.5,30.6,36.9,50.7,7.4,20.1,10.1,40.1,8.2,59.8"/>
</svg>